# xmcd
#
# Track frame offsets: 
#        150
#        19451
#        33992
#        43079
#        75184
#        87911
#        107281
#        139957
#        163761
#        179768
#        194814
#        210610
#        226029
#        244052
#        274030
#
# Disc length: 3823 seconds
#
# Revision: 1
# Processed by: cddbd v1.5.2PL0 Copyright (c) Steve Scherf et al.
# Submitted via: ExactAudioCopyFreeDBPlugin 1.0
#
DISCID=ca0eed0f
DTITLE=Traveling with Music - The wonderful moment of winter
DYEAR=2011
DGENRE=Jazz
TTITLE0=Canon 卡農
TTITLE1=The Four Seasons¨Winter¨,3rd Mvt.四季(冬第三樂章)
TTITLE2=踏雪尋梅
TTITLE3=Prime of Life原味生活
TTITLE4=Here Comes the Sun太陽出來了
TTITLE5=Horizon旭日初昇
TTITLE6=Time Keepers時間守護者
TTITLE7=Snow靜靜的雪
TTITLE8=Shadow on The Sky天空的影子
TTITLE9=Ice Dance冰舞
TTITLE10=Silver Mountain銀山
TTITLE11=I Saw Three Ships我看見三艘船
TTITLE12=Yesterday昨日
TTITLE13=Ravel: Miroirs - Alborada del gracioso"鏡"第四曲，小丑的晨歌
TTITLE14=Der Lindenbaum冬之旅，菩提樹
EXTD=YEAR: 2011
EXTT0=
EXTT1=
EXTT2=
EXTT3=
EXTT4=
EXTT5=
EXTT6=
EXTT7=
EXTT8=
EXTT9=
EXTT10=
EXTT11=
EXTT12=
EXTT13=
EXTT14=
PLAYORDER=
